<?xml version="1.0" encoding="utf-8"?>
<!-- Generator: Adobe Illustrator 15.1.0, SVG Export Plug-In . SVG Version: 6.00 Build 0)  -->
<!DOCTYPE svg PUBLIC "-//W3C//DTD SVG 1.1//EN" "http://www.w3.org/Graphics/SVG/1.1/DTD/svg11.dtd">
<svg version="1.1" id="katman_1" xmlns="http://www.w3.org/2000/svg" xmlns:xlink="http://www.w3.org/1999/xlink" x="0px" y="0px"
	 width="250px" height="64px" viewBox="0 0 250 64" enable-background="new 0 0 250 64" xml:space="preserve">
<g>
	<g>
		<path d="M85.234,43.728c3.601,0,5.319,1.773,5.319,5.521c0,3.894-1.7,5.722-5.338,5.722h-2.998V43.728H85.234z M85.271,54.238
			c2.98,0,4.387-1.572,4.387-4.936c0-3.29-1.444-4.844-4.46-4.844h-2.103v9.779H85.271z"/>
		<path d="M93.187,44.642c-0.238-0.274-0.238-0.731,0-0.969c0.238-0.274,0.75-0.274,0.987,0c0.237,0.237,0.237,0.694,0,0.969
			C93.936,44.879,93.424,44.879,93.187,44.642z M93.26,54.97v-8.171h0.841v8.171H93.26z"/>
		<path d="M98.634,46.799v8.116c0,1.061-0.201,1.828-0.604,2.321c-0.402,0.494-1.188,0.859-2.358,1.097l-0.165-0.713
			c0.823-0.164,1.408-0.438,1.755-0.804c0.347-0.366,0.512-0.987,0.512-1.883v-8.135H98.634z M97.701,44.642
			c-0.237-0.274-0.237-0.731,0-0.969c0.274-0.274,0.731-0.274,0.969,0c0.274,0.237,0.274,0.694,0,0.969
			C98.433,44.879,97.976,44.879,97.701,44.642z"/>
		<path d="M102.199,44.642c-0.238-0.274-0.238-0.731,0-0.969c0.238-0.274,0.75-0.274,0.987,0c0.237,0.237,0.237,0.694,0,0.969
			C102.948,44.879,102.437,44.879,102.199,44.642z M102.272,54.97v-8.171h0.841v8.171H102.272z"/>
		<path d="M110.662,54.878c-0.512,0.201-1.06,0.293-1.627,0.293c-1.499,0-2.249-0.822-2.249-2.468v-5.229h-1.279v-0.676h1.279V44.02
			l0.859-0.219v2.998h2.468v0.676h-2.468v5.174c0,1.188,0.494,1.791,1.48,1.791c0.42,0,0.877-0.091,1.371-0.256L110.662,54.878z"/>
		<path d="M116.823,54.97c-0.091-0.604-0.146-0.95-0.165-1.006c-1.042,0.823-1.974,1.226-2.779,1.226
			c-1.371,0-2.175-0.859-2.175-2.194c0-1.919,1.627-2.724,4.899-2.724v-1.115c0-1.206-0.585-1.81-1.737-1.81
			c-0.676,0-1.481,0.183-2.413,0.567l-0.238-0.658c1.042-0.421,1.938-0.622,2.706-0.622c1.682,0,2.523,0.823,2.523,2.486v3.51
			c0,0.549,0.055,1.334,0.165,2.34H116.823z M116.604,50.948h-0.019c-2.724,0-4.003,0.566-4.003,1.974
			c0,0.933,0.567,1.555,1.426,1.555c0.75,0,1.627-0.421,2.596-1.28V50.948z"/>
		<path d="M121.028,54.97V42.594h0.841V54.97H121.028z"/>
		<path d="M135.505,51.552h-5.026l-1.298,3.418h-0.896l4.24-11.242h0.896l4.351,11.242h-0.951L135.505,51.552z M130.734,50.839
			h4.497l-2.285-6.179L130.734,50.839z"/>
		<path d="M140.807,46.799v8.116c0,1.061-0.201,1.828-0.603,2.321c-0.402,0.494-1.188,0.859-2.358,1.097l-0.165-0.713
			c0.823-0.164,1.408-0.438,1.755-0.804c0.348-0.366,0.513-0.987,0.513-1.883v-8.135H140.807z M139.875,44.642
			c-0.238-0.274-0.238-0.731,0-0.969c0.273-0.274,0.73-0.274,0.969,0c0.274,0.237,0.274,0.694,0,0.969
			C140.605,44.879,140.148,44.879,139.875,44.642z"/>
		<path d="M148.54,54.97c-0.092-0.604-0.146-0.95-0.165-1.006c-1.042,0.823-1.974,1.226-2.778,1.226
			c-1.371,0-2.175-0.859-2.175-2.194c0-1.919,1.627-2.724,4.898-2.724v-1.115c0-1.206-0.585-1.81-1.736-1.81
			c-0.677,0-1.48,0.183-2.413,0.567l-0.237-0.658c1.042-0.421,1.938-0.622,2.705-0.622c1.682,0,2.522,0.823,2.522,2.486v3.51
			c0,0.549,0.055,1.334,0.165,2.34H148.54z M148.32,50.948h-0.018c-2.725,0-4.004,0.566-4.004,1.974
			c0,0.933,0.566,1.555,1.426,1.555c0.75,0,1.627-0.421,2.596-1.28V50.948z"/>
		<path d="M153.566,47.986c1.188-0.896,2.267-1.353,3.199-1.353c1.554,0,2.321,0.878,2.321,2.614v5.722h-0.858v-5.648
			c0-1.298-0.549-1.938-1.664-1.938c-0.786,0-1.791,0.457-2.979,1.371v6.215h-0.841v-8.171h0.822V47.986z"/>
		<path d="M161.848,53.946c0.878,0.347,1.646,0.512,2.322,0.512c1.188,0,1.974-0.476,1.974-1.407c0-0.805-0.658-1.39-1.517-1.755
			c-1.207-0.53-2.742-1.061-2.742-2.651c0-1.371,1.097-2.028,2.687-2.028c0.658,0,1.354,0.109,2.066,0.347l-0.22,0.713
			c-0.677-0.256-1.279-0.384-1.81-0.384c-1.17,0-1.865,0.457-1.865,1.316c0,0.786,0.677,1.298,1.499,1.663
			c1.226,0.53,2.761,1.061,2.761,2.742c0,1.48-1.17,2.139-2.852,2.139c-0.896,0-1.755-0.164-2.56-0.512L161.848,53.946z"/>
	</g>
	<g>
		<path fill="#201C21" d="M1.736,17.633c0.623-0.135,1.215-0.216,1.772-0.244c0.557-0.027,1.024-0.041,1.404-0.041
			c0.544,0,1.073,0.013,1.589,0.041c0.515,0.028,1.005,0.094,1.466,0.203l3.38,15.56l3.912-15.56
			c0.841-0.162,1.764-0.244,2.767-0.244c0.708,0.026,1.29,0.054,1.753,0.082c0.461,0.027,0.868,0.081,1.22,0.162l3.831,15.273
			l3.34-15.273c0.461-0.081,0.896-0.143,1.303-0.184s0.868-0.06,1.384-0.06c0.38,0,0.836,0.013,1.365,0.041
			c0.529,0.028,1.118,0.109,1.771,0.244l-6.557,21.016c-0.489,0.081-1.011,0.136-1.568,0.164c-0.557,0.025-1.026,0.04-1.406,0.04
			c-0.409,0-0.862-0.015-1.363-0.04c-0.504-0.028-0.987-0.097-1.446-0.205L17.824,24.68l-3.95,13.969
			c-0.518,0.081-1.054,0.136-1.61,0.164c-0.557,0.025-1.024,0.04-1.405,0.04c-0.38,0-0.821-0.015-1.323-0.04
			c-0.503-0.028-0.985-0.097-1.446-0.205L1.736,17.633z"/>
		<path fill="#201C21" d="M38.744,29.893c0.107,1.629,0.678,2.81,1.709,3.543c1.032,0.733,2.391,1.1,4.074,1.1
			c0.923,0,1.866-0.087,2.831-0.266c0.964-0.176,1.881-0.427,2.749-0.753c0.299,0.543,0.555,1.194,0.774,1.954
			c0.217,0.761,0.337,1.575,0.367,2.445c-2.12,0.813-4.509,1.223-7.168,1.223c-1.956,0-3.632-0.271-5.03-0.815
			c-1.399-0.543-2.54-1.297-3.421-2.261c-0.883-0.964-1.534-2.109-1.956-3.442c-0.422-1.331-0.631-2.784-0.631-4.356
			c0-1.55,0.219-3.002,0.652-4.359c0.434-1.358,1.078-2.539,1.935-3.543c0.855-1.005,1.914-1.798,3.178-2.383
			c1.261-0.584,2.735-0.875,4.418-0.875c1.467,0,2.769,0.256,3.91,0.772s2.111,1.222,2.913,2.118c0.8,0.896,1.404,1.961,1.812,3.197
			c0.407,1.235,0.61,2.558,0.61,3.972c0,0.515-0.021,1.026-0.06,1.527c-0.042,0.501-0.087,0.902-0.143,1.201H38.744L38.744,29.893z
			 M47.012,25.862c-0.055-1.303-0.414-2.356-1.081-3.158c-0.664-0.8-1.595-1.201-2.788-1.201c-1.357,0-2.389,0.381-3.097,1.141
			c-0.706,0.761-1.126,1.832-1.263,3.218H47.012z"/>
		<path fill="#201C21" d="M53.955,8.877c0.979-0.162,1.928-0.245,2.852-0.245c0.951,0,1.915,0.083,2.892,0.245v10.752
			c0.407-0.733,1.087-1.337,2.037-1.811c0.95-0.476,2.037-0.712,3.257-0.712c1.222,0,2.355,0.216,3.4,0.651
			c1.047,0.433,1.951,1.092,2.71,1.973c0.759,0.883,1.356,1.99,1.792,3.321c0.435,1.331,0.651,2.905,0.651,4.726
			c0,1.764-0.271,3.345-0.815,4.744c-0.54,1.397-1.329,2.585-2.361,3.562c-1.032,0.979-2.295,1.731-3.788,2.261
			c-1.493,0.531-3.178,0.796-5.05,0.796c-0.597,0-1.227-0.028-1.894-0.083c-0.666-0.056-1.336-0.129-2.016-0.225
			c-0.679-0.096-1.33-0.216-1.954-0.364c-0.625-0.149-1.196-0.32-1.712-0.512V8.877L53.955,8.877z M59.698,34.089
			c0.326,0.108,0.672,0.175,1.039,0.204c0.367,0.026,0.74,0.039,1.12,0.039c1.766,0,3.15-0.515,4.155-1.547
			c1.004-1.032,1.506-2.647,1.506-4.846c0-1.956-0.313-3.442-0.937-4.461c-0.623-1.018-1.683-1.525-3.178-1.525
			c-1.084,0-1.973,0.36-2.667,1.078c-0.693,0.719-1.039,1.855-1.039,3.401V34.089z"/>
		<path fill="#201C21" d="M75.23,35.798c0.597,0.246,1.372,0.456,2.321,0.631c0.95,0.179,1.862,0.267,2.729,0.267
			c1.631,0,2.919-0.36,3.871-1.079c0.949-0.721,1.423-1.61,1.423-2.668c0-0.732-0.14-1.337-0.425-1.813
			c-0.287-0.474-0.666-0.873-1.141-1.201c-0.475-0.326-1.013-0.591-1.608-0.793c-0.599-0.203-1.209-0.414-1.834-0.631
			c-0.679-0.217-1.351-0.461-2.016-0.732c-0.665-0.272-1.256-0.618-1.771-1.039c-0.518-0.424-0.932-0.932-1.243-1.527
			c-0.313-0.599-0.467-1.346-0.467-2.241c0-1.657,0.604-3.001,1.811-4.032c1.209-1.032,3.076-1.548,5.601-1.548
			c1.058,0,2.084,0.094,3.074,0.286c0.992,0.188,1.759,0.393,2.301,0.61c-0.135,0.787-0.325,1.562-0.569,2.321
			c-0.57-0.19-1.295-0.378-2.178-0.569c-0.883-0.19-1.8-0.284-2.751-0.284c-1.655,0-2.831,0.291-3.523,0.875
			c-0.691,0.584-1.039,1.351-1.039,2.302c0,0.516,0.117,0.958,0.347,1.324c0.232,0.365,0.544,0.678,0.937,0.935
			c0.393,0.26,0.842,0.482,1.344,0.674c0.503,0.19,1.039,0.365,1.608,0.529c0.733,0.244,1.475,0.51,2.22,0.794
			c0.747,0.286,1.427,0.659,2.037,1.12c0.612,0.462,1.114,1.045,1.508,1.753c0.395,0.706,0.589,1.589,0.589,2.646
			c0,0.979-0.195,1.867-0.589,2.668c-0.394,0.8-0.944,1.479-1.65,2.036c-0.705,0.556-1.548,0.985-2.525,1.284
			c-0.977,0.297-2.05,0.448-3.217,0.448c-1.303,0-2.465-0.083-3.481-0.245c-1.02-0.164-1.841-0.382-2.465-0.652
			C74.618,37.429,74.876,36.614,75.23,35.798z"/>
		<path fill="#201C21" d="M92.164,20.16h-3.543c-0.027-0.136-0.047-0.313-0.062-0.531c-0.013-0.217-0.02-0.433-0.02-0.651
			c0-0.219,0.006-0.42,0.02-0.612c0.015-0.19,0.034-0.352,0.062-0.488h3.543v-3.91l2.525-2.485h0.164v6.395h5.62
			c0.026,0.136,0.047,0.298,0.062,0.488c0.013,0.192,0.02,0.393,0.02,0.612c0,0.218-0.006,0.434-0.02,0.651
			c-0.015,0.218-0.036,0.395-0.062,0.531h-5.62v13.521c0,0.678,0.087,1.214,0.263,1.607c0.177,0.394,0.407,0.7,0.695,0.917
			c0.282,0.216,0.608,0.359,0.977,0.428c0.365,0.067,0.738,0.102,1.12,0.102c0.951,0,1.777-0.121,2.485-0.366
			c0.188,0.706,0.325,1.467,0.406,2.28c-0.977,0.3-2.118,0.449-3.421,0.449c-1.546,0-2.803-0.415-3.767-1.243
			c-0.964-0.828-1.446-2.18-1.446-4.053V20.16z"/>
		<path fill="#201C21" d="M101.879,17.878c0.162-0.028,0.394-0.047,0.691-0.06c0.299-0.015,0.518-0.021,0.651-0.021
			c0.164,0,0.388,0.006,0.674,0.021c0.284,0.013,0.508,0.032,0.672,0.06v11.688c0,1.467,0.149,2.668,0.448,3.605
			c0.299,0.937,0.74,1.67,1.324,2.199c0.583,0.53,1.295,0.896,2.138,1.1c0.842,0.203,1.792,0.306,2.852,0.306
			c0.894,0,1.696-0.047,2.402-0.143c0.706-0.095,1.333-0.225,1.875-0.387V17.878c0.164-0.028,0.393-0.047,0.691-0.06
			c0.3-0.015,0.518-0.021,0.652-0.021c0.163,0,0.386,0.006,0.674,0.021c0.284,0.013,0.508,0.032,0.67,0.06V38.12
			c-1.004,0.272-2.124,0.51-3.359,0.712c-1.235,0.205-2.506,0.308-3.808,0.308c-1.277,0-2.478-0.122-3.604-0.367
			c-1.128-0.245-2.105-0.713-2.934-1.405c-0.828-0.693-1.485-1.65-1.974-2.873c-0.489-1.221-0.733-2.809-0.733-4.763V17.878z"/>
		<path fill="#201C21" d="M136.452,8.715c0.162-0.028,0.393-0.047,0.691-0.063c0.299-0.013,0.517-0.02,0.652-0.02
			c0.163,0,0.387,0.006,0.672,0.02c0.283,0.016,0.51,0.036,0.672,0.063V38.16c-0.841,0.271-1.886,0.504-3.135,0.693
			c-1.25,0.189-2.555,0.286-3.912,0.286c-1.493,0-2.892-0.178-4.193-0.531c-1.305-0.353-2.431-0.937-3.382-1.751
			c-0.951-0.813-1.704-1.888-2.259-3.217c-0.558-1.331-0.837-2.973-0.837-4.929c0-1.792,0.247-3.387,0.737-4.784
			c0.487-1.399,1.178-2.579,2.074-3.543c0.899-0.964,1.977-1.706,3.239-2.22c1.263-0.518,2.655-0.774,4.175-0.774
			c0.896,0,1.785,0.075,2.668,0.224s1.594,0.318,2.139,0.508V8.715L136.452,8.715z M136.452,20.649
			c-0.545-0.219-1.236-0.414-2.077-0.593c-0.844-0.175-1.711-0.264-2.606-0.264c-1.279,0-2.383,0.219-3.32,0.652
			c-0.938,0.435-1.718,1.039-2.341,1.813c-0.626,0.772-1.094,1.702-1.405,2.79c-0.315,1.086-0.471,2.28-0.471,3.583
			c0,2.824,0.675,4.88,2.019,6.17c1.341,1.29,3.25,1.935,5.723,1.935c0.896,0,1.75-0.047,2.564-0.143s1.454-0.209,1.915-0.346
			V20.649z"/>
		<path fill="#201C21" d="M144.58,20.16h-2.606c-0.026-0.136-0.049-0.3-0.062-0.488c-0.013-0.191-0.02-0.395-0.02-0.612
			c0-0.218,0.007-0.435,0.02-0.653c0.013-0.217,0.035-0.393,0.062-0.529h5.294v20.771c-0.162,0.027-0.386,0.049-0.672,0.062
			c-0.282,0.013-0.506,0.02-0.672,0.02c-0.136,0-0.351-0.007-0.649-0.02c-0.302-0.013-0.532-0.034-0.694-0.062V20.16L144.58,20.16z
			 M143.236,12.787c-0.026-0.244-0.045-0.543-0.062-0.896c-0.013-0.354-0.02-0.651-0.02-0.896c0-0.217,0.007-0.488,0.02-0.816
			c0.017-0.325,0.035-0.596,0.062-0.813c0.247-0.027,0.542-0.047,0.896-0.06c0.354-0.015,0.653-0.021,0.896-0.021
			c0.218,0,0.49,0.006,0.814,0.021c0.328,0.013,0.601,0.033,0.814,0.06c0.029,0.218,0.049,0.489,0.063,0.813
			c0.013,0.328,0.019,0.599,0.019,0.816c0,0.245-0.006,0.542-0.019,0.896c-0.014,0.353-0.033,0.652-0.063,0.896
			c-0.214,0.028-0.486,0.049-0.814,0.062c-0.324,0.013-0.597,0.02-0.814,0.02c-0.243,0-0.542-0.006-0.896-0.02
			C143.778,12.836,143.483,12.815,143.236,12.787z"/>
		<path fill="#201C21" d="M159.554,36.776c2.172,0,3.795-0.762,4.865-2.282c1.075-1.521,1.607-3.596,1.607-6.229
			c0-2.634-0.532-4.711-1.607-6.232c-1.07-1.521-2.693-2.28-4.865-2.28s-3.798,0.759-4.869,2.28
			c-1.071,1.521-1.609,3.598-1.609,6.232c0,2.633,0.538,4.708,1.609,6.229S157.382,36.776,159.554,36.776L159.554,36.776z
			 M159.554,39.14c-1.548,0-2.908-0.279-4.073-0.835c-1.169-0.558-2.14-1.325-2.912-2.303c-0.775-0.977-1.351-2.131-1.733-3.462
			c-0.38-1.331-0.568-2.754-0.568-4.275c0-1.521,0.188-2.947,0.568-4.278c0.383-1.329,0.958-2.485,1.733-3.462
			c0.772-0.977,1.743-1.743,2.912-2.3c1.165-0.557,2.525-0.836,4.073-0.836c1.545,0,2.898,0.279,4.051,0.836s2.116,1.323,2.893,2.3
			c0.772,0.977,1.356,2.133,1.749,3.462c0.396,1.331,0.591,2.757,0.591,4.278c0,1.521-0.194,2.944-0.591,4.275
			c-0.393,1.331-0.977,2.485-1.749,3.462c-0.776,0.978-1.74,1.745-2.893,2.303C162.452,38.86,161.099,39.14,159.554,39.14z"/>
		<radialGradient id="SVGID_1_" cx="203.4141" cy="21.5317" r="36.81" gradientUnits="userSpaceOnUse">
			<stop  offset="0" style="stop-color:#DC551F"/>
			<stop  offset="1" style="stop-color:#CE2C17"/>
		</radialGradient>
		<path fill-rule="evenodd" clip-rule="evenodd" fill="url(#SVGID_1_)" d="M222.193,56.328c2.309-4.098,4.869-7.775,7.699-11.023
			c1.11-0.187,2.049-0.485,2.818-0.904c1.359-0.739,2.045-2.016,2.045-3.83c0-0.067-0.004-0.135-0.004-0.202
			c3.584-3.206,7.515-5.842,11.803-7.906c0.211,0.391,0.405,0.798,0.581,1.22c-8.823,5.249-15.99,12.951-21.589,22.949
			C224.368,56.575,223.249,56.474,222.193,56.328L222.193,56.328z M248.129,37.929c-7.047,4.451-12.978,10.687-17.811,18.693
			c1.052-0.065,2.064-0.176,3.035-0.338c4.132-6.807,9.075-12.458,14.859-16.892C248.2,38.888,248.171,38.4,248.129,37.929
			L248.129,37.929z M186.939,56.25c3.389-7.764,7.365-14.506,11.955-20.183l-4.116,16.865c-0.451,0.922-0.893,1.86-1.324,2.814
			c-0.441,0.074-1.016,0.16-1.73,0.267c-1.168,0.165-2.424,0.248-3.762,0.248C187.608,56.262,187.271,56.258,186.939,56.25
			L186.939,56.25z M213.754,56.25c0.289,0.008,0.575,0.012,0.867,0.012c1.236,0,2.383-0.061,3.431-0.184
			c2.077-3.892,4.379-7.454,6.897-10.683c-1.172-0.133-2.411-0.373-3.72-0.721C218.486,48.109,215.994,51.972,213.754,56.25
			L213.754,56.25z M184.379,56.049c0.101,0.012,0.201,0.026,0.302,0.037c-0.02-0.191,0.01-0.388,0.091-0.577
			c4.19-9.625,9.276-17.766,15.308-24.303l1.282-5.257l0.724,3.171c2.912-2.887,6.028-5.424,9.352-7.6l-1.029-4.57
			c-8.075,4.104-15.051,10.144-21.004,17.989c-0.169,0.759-0.338,1.512-0.51,2.261l-0.233-1.267
			c-2.889,3.942-5.534,8.323-7.939,13.127c-0.098,0.199-0.26,0.347-0.445,0.437l1.454,6.12
			C182.444,55.76,183.327,55.904,184.379,56.049L184.379,56.049z M208.168,55.617l-0.844-3.686
			c2.535-4.528,5.355-8.577,8.469-12.135l1.146,3.428c0.289,0.118,0.578,0.231,0.863,0.339c-2.837,3.7-5.397,7.824-7.687,12.368
			C209.178,55.802,208.528,55.698,208.168,55.617L208.168,55.617z M247.203,46.152c-2.489,2.324-4.801,4.938-6.927,7.837
			c0.993-0.54,1.899-1.157,2.717-1.849c1.721-1.456,3.022-3.198,3.905-5.229C247.009,46.663,247.109,46.41,247.203,46.152
			L247.203,46.152z M206.341,47.646l-1.468-6.391c2.701-3.647,5.635-6.887,8.819-9.704l1.098,4.854
			C211.706,39.729,208.889,43.478,206.341,47.646L206.341,47.646z M179.665,46.918c2.578-4.976,5.418-9.499,8.53-13.545
			l-1.467-8.101c-3.389,3.496-6.508,7.458-9.381,11.877L179.665,46.918L179.665,46.918z M204.104,37.905l-1.412-6.152
			c2.882-2.989,5.973-5.61,9.283-7.847l1.058,4.711C209.82,31.326,206.847,34.426,204.104,37.905L204.104,37.905z M231.564,36.232
			c0.483,0.216,0.922,0.463,1.328,0.753c3.457-2.999,7.222-5.521,11.306-7.56c-0.429-0.406-0.89-0.786-1.373-1.146
			c-4.58,1.86-8.787,4.324-12.634,7.381C230.656,35.843,231.113,36.036,231.564,36.232L231.564,36.232z M176.861,35.09l-2.182-9.204
			c3.204-3.798,6.642-7.159,10.335-10.054l1.376,7.587C182.957,26.85,179.785,30.745,176.861,35.09L176.861,35.09z M226.537,34.28
			c3.84-3.289,8.043-6,12.626-8.115c-0.812-0.394-1.671-0.785-2.577-1.176c-4.931,1.938-9.445,4.559-13.558,7.856
			c0.85,0.413,1.749,0.791,2.693,1.129L226.537,34.28L226.537,34.28z M217.416,28.707c-0.036-0.032-0.065-0.069-0.098-0.102
			c3.697-2.756,7.696-5.005,12.007-6.727c0.701,0.423,1.483,0.803,2.344,1.136l0.954,0.374c-4.479,2.056-8.611,4.677-12.396,7.847
			C219.155,30.492,218.221,29.653,217.416,28.707L217.416,28.707z M192.474,20.754c0.065-0.299,0.127-0.602,0.191-0.906
			c4.947-3.971,10.374-7.073,16.312-9.256l0.996,4.438c-7.417,3.689-13.944,8.95-19.628,15.679
			C191.056,27.472,191.767,24.154,192.474,20.754L192.474,20.754z M215.085,24.663c-0.263-0.728-0.461-1.513-0.601-2.362
			c3.979-2.382,8.255-4.252,12.845-5.588c-0.166,0.437-0.244,0.935-0.244,1.497c0,0.607,0.088,1.144,0.26,1.613
			c-4.105,1.733-7.942,3.929-11.503,6.573C215.556,25.846,215.299,25.265,215.085,24.663L215.085,24.663z M174.342,24.471
			l-2.064-8.725c3.499-3.231,7.226-6.026,11.199-8.371l1.298,7.159C181.052,17.395,177.578,20.717,174.342,24.471L174.342,24.471z
			 M214.261,19.286c0,0.17,0,0.337,0.003,0.501c8.894-5.098,19.203-7.777,31.019-7.849c0.064-0.213,0.123-0.424,0.185-0.645
			c0.036-0.145,0.075-0.294,0.117-0.437c-11.604-0.937-21.855,0.49-30.847,4.125C214.416,16.312,214.261,17.747,214.261,19.286
			L214.261,19.286z M194.876,9.514c4.012-2.05,8.271-3.65,12.786-4.775l0.974,4.333c-5.59,2.037-10.744,4.861-15.477,8.439
			C193.736,14.78,194.308,12.109,194.876,9.514L194.876,9.514z M239.192,14.842c-0.27-0.089-0.548-0.177-0.837-0.251
			c2.002-0.208,4.057-0.326,6.167-0.362c-0.166,0.437-0.334,0.868-0.517,1.29c-0.727,0.083-1.44,0.179-2.155,0.282
			C241.036,15.491,240.15,15.171,239.192,14.842L239.192,14.842z M172.066,14.848c3.522-3.21,7.271-5.989,11.257-8.317l-0.376-2.078
			c-1.243-0.242-2.354-0.396-3.334-0.467s-1.921-0.107-2.83-0.107c-0.848,0-1.805,0.039-2.876,0.114
			c-1.295,0.797-2.567,1.644-3.814,2.539L172.066,14.848L172.066,14.848z M215.549,12.55c0.792-1.802,1.877-3.348,3.25-4.646
			c8.271-1.542,17.401-1.552,27.438,0.066c-0.062,0.326-0.13,0.662-0.204,1.003c-11.4-0.956-21.55,0.315-30.519,3.658
			C215.526,12.604,215.536,12.576,215.549,12.55L215.549,12.55z M195.986,4.453c-0.264,1.182-0.526,2.376-0.789,3.587
			c3.262-1.604,6.68-2.915,10.261-3.926c-0.146-0.021-0.289-0.037-0.441-0.057c-1-0.12-1.98-0.179-2.938-0.179
			c-1.098,0-2.175,0.059-3.224,0.179C197.804,4.177,196.85,4.309,195.986,4.453L195.986,4.453z M246.477,6.443
			c0.01-0.066,0.017-0.131,0.029-0.2c-2.581-0.905-5.009-1.599-7.274-2.077c-2.269-0.479-4.619-0.716-7.057-0.716
			c-2.727,0-5.184,0.344-7.381,1.034c-1.185,0.378-2.275,0.852-3.275,1.417C229.153,4.836,237.463,4.997,246.477,6.443
			L246.477,6.443z M169.982,6.075l-0.363-1.55c1.149-0.204,2.266-0.358,3.35-0.459C171.96,4.707,170.963,5.374,169.982,6.075z"/>
	</g>
</g>
</svg>
